HIERARCHY
ROOT Hips
{
	OFFSET 0.00000 0.00000 0.00000
	CHANNELS 6 Xposition Yposition Zposition Zrotation Yrotation Xrotation 
	JOINT LHipJoint
	{
		OFFSET 0 0 0
		CHANNELS 3 Zrotation Yrotation Xrotation
		JOINT LeftHip
		{
			OFFSET 1.36306 -1.79463 0.83929
			CHANNELS 3 Zrotation Yrotation Xrotation
			JOINT LeftKnee
			{
				OFFSET 2.44811 -6.72613 0.00000
				CHANNELS 3 Zrotation Yrotation Xrotation
				JOINT LeftAnkle
				{
					OFFSET 2.56220 -7.03959 0.00000
					CHANNELS 3 Zrotation Yrotation Xrotation
					JOINT LeftToe
					{
						OFFSET 0.15764 -0.43311 2.32255
						CHANNELS 3 Zrotation Yrotation Xrotation
						End Site
						{
							OFFSET 0.00000 -0.00000 1.18966
						}
					}
				}
			}
		}
	}
	JOINT RHipJoint
	{
		OFFSET 0 0 0
		CHANNELS 3 Zrotation Yrotation Xrotation
		JOINT RightHip
		{
			OFFSET -1.30552 -1.79463 0.83929
			CHANNELS 3 Zrotation Yrotation Xrotation
			JOINT RightKnee
			{
				OFFSET -2.54253 -6.98555 0.00000
				CHANNELS 3 Zrotation Yrotation Xrotation
				JOINT RightAnkle
				{
					OFFSET -2.56826 -7.05623 0.00000
					CHANNELS 3 Zrotation Yrotation Xrotation
					JOINT RightToe
					{
						OFFSET -0.16473 -0.45259 2.36315
						CHANNELS 3 Zrotation Yrotation Xrotation
						End Site
						{
							OFFSET -0.00000 -0.00000 1.21082
						}
					}
				}
			}
		}
	}
	JOINT lowerback
	{
		OFFSET 0 0 0
		CHANNELS 3 Zrotation Yrotation Xrotation
		JOINT Chest
		{
			OFFSET 0.02827 2.03559 -0.19338
			CHANNELS 3 Zrotation Yrotation Xrotation
			JOINT Chest2
			{
				OFFSET 0.05672 2.04885 -0.04275
				CHANNELS 3 Zrotation Yrotation Xrotation
				JOINT lowerneck
				{
					OFFSET 0 0 0
					CHANNELS 3 Zrotation Yrotation Xrotation
					JOINT Neck
					{
						OFFSET -0.05417 1.74624 0.17202
						CHANNELS 3 Zrotation Yrotation Xrotation
						JOINT Head
						{
							OFFSET 0.10407 1.76136 -0.12397
							CHANNELS 3 Zrotation Yrotation Xrotation
							End Site
							{
								OFFSET 0.03720 1.77044 -0.06241
							}
						}
					}
				}
				JOINT LeftCollar
				{
					OFFSET 0 0 0
					CHANNELS 3 Zrotation Yrotation Xrotation
					JOINT LeftShoulder
					{
						OFFSET 3.36241 1.20089 -0.31121
CHANNELS 3 Zrotation Xrotation Yrotation
						JOINT LeftElbow
						{
OFFSET 0 -4.983000 -0.000000
CHANNELS 3 Zrotation Xrotation Yrotation
							JOINT LeftWrist
							{
OFFSET 0 -3.483560 -0.000000
CHANNELS 3 Zrotation Xrotation Yrotation
								JOINT lhand
								{
									OFFSET 0 0 0
CHANNELS 3 Zrotation Xrotation Yrotation
									JOINT LFingers
									{
OFFSET 0 -0.715260 -0.000000
CHANNELS 3 Zrotation Xrotation Yrotation
										End Site
										{
OFFSET 0 -0.576660 -0.000000
										}
									}
								}
								JOINT LThumb
								{
OFFSET 0 0.000000 0.000000
CHANNELS 3 Zrotation Xrotation Yrotation
									End Site
									{
OFFSET 0 -0.585470 0.585470
									}
								}
							}
						}
					}
				}
				JOINT RightCollar
				{
					OFFSET 0 0 0
					CHANNELS 3 Zrotation Yrotation Xrotation
					JOINT RightShoulder
					{
						OFFSET -3.13660 1.37405 -0.40465
CHANNELS 3 Zrotation Xrotation Yrotation
						JOINT RightElbow
						{
OFFSET 0 -5.241900 -0.000000
CHANNELS 3 Zrotation Xrotation Yrotation
							JOINT RightWrist
							{
OFFSET 0 -3.444170 -0.000000
CHANNELS 3 Zrotation Xrotation Yrotation
								JOINT rhand
								{
									OFFSET 0 0 0
CHANNELS 3 Zrotation Xrotation Yrotation
									JOINT RFingers
									{
OFFSET 0 -0.622530 -0.000000
CHANNELS 3 Zrotation Xrotation Yrotation
										End Site
										{
OFFSET 0 -0.501900 -0.000000
										}
									}
								}
								JOINT RThumb
								{
OFFSET 0 0.000000 0.000000
CHANNELS 3 Zrotation Xrotation Yrotation
									End Site
									{
OFFSET 0 -0.509560 0.509560
									}
								}
							}
						}
					}
				}
			}
		}
	}
}
MOTION
Frames: 6
Frame Time: .0083333
9.2751 16.6913 2.2163 -181.9650 -180.5180 197.0900 0.0000 0.0000 0.0000 -11.9519 -7.9377 -38.7232 8.6562 16.5813 54.8933 3.0295 -9.0975 -31.4528 0.1702 -2.6578 -7.3275 0.0000 0.0000 0.0000 18.1900 10.8320 -39.7095 -10.0054 -17.4129 59.5064 -2.7955 -2.8816 -32.7298 -0.0922 1.9579 -5.3894 1.8077 0.4003 24.1664 2.8270 1.3870 1.0032 1.6834 0.6340 -12.4841 -5.1307 -3.5235 -13.4571 5.8960 -4.0546 -2.7224 2.5961 -1.8448 1.7211 -0.0000 -0.0000 0.0000 12.031 -16.0989 -25.7953 132.1150 -52.1061 95.505 34.1672 -27.8349 16.4013 0.0 0.0 0.0 -7.1250 0.0 0.0 4.1862 10.4385 3.3677 -0.0000 -0.0000 0.0000 -15.1379 -24.7073 22.3447 -125.7883 -54.5591 -90.4273 -22.4141 -15.7536 10.6092 0.0 0.0 0.0 7.1250 0.0 -0.0 4.1457 41.3984 0.369
9.2699 16.5864 2.2201 -181.9510 -181.2260 197.6480 0.0000 0.0000 0.0000 -11.5410 -8.7498 -40.1725 9.1406 16.8974 56.5753 3.1359 -9.0610 -32.0279 0.1787 -2.7228 -7.5078 0.0000 0.0000 0.0000 18.0781 10.8323 -41.2038 -10.5078 -17.6857 61.1724 -2.8570 -3.3170 -33.2501 -0.1013 2.0523 -5.6502 2.1451 0.1598 24.4596 2.8495 1.1843 0.9262 1.5871 0.5215 -12.7255 -4.9598 -3.5776 -13.5791 5.9021 -4.1201 -3.5019 2.5606 -1.8806 1.4808 -0.0000 -0.0000 0.0000 12.1975 -16.8171 -25.3529 133.1643 -51.6367 96.3305 33.89 -27.7361 16.246 0.0 0.0 0.0 -7.1250 0.0 0.0 4.0284 10.6745 3.2207 -0.0000 -0.0000 0.0000 -15.5164 -25.2906 21.6761 -126.9151 -54.1664 -91.3431 -22.364 -15.5376 10.784 0.0 0.0 0.0 7.1250 0.0 -0.0 4.2143 41.5809 0.3561
9.2577 16.4842 2.2500 -181.9230 -181.2670 198.1170 0.0000 0.0000 0.0000 -11.3134 -8.9734 -41.4053 9.6184 17.1896 58.2053 3.2864 -8.4820 -32.8595 0.2557 -3.2532 -8.9844 0.0000 0.0000 0.0000 17.8816 11.3701 -42.3624 -11.0019 -17.9360 62.7877 -2.8742 -3.9976 -33.6298 -0.1311 2.3338 -6.4292 2.0328 0.2097 24.5448 2.8223 1.2170 0.9503 1.6094 0.5420 -12.7467 -4.6511 -3.6021 -13.8349 5.7889 -4.1658 -4.1065 2.4606 -1.9088 1.3133 0.0000 0.0000 0.0000 12.4262 -17.5216 -25.0242 133.9626 -51.2667 96.9548 34.0607 -27.9919 16.3118 0.0 0.0 0.0 -7.1250 0.0 0.0 4.1300 10.564 3.3117 0.0000 0.0000 0.0000 -15.9668 -25.9346 20.9517 -127.7996 -53.8453 -92.0587 -21.8296 -15.6715 10.8454 0.0 0.0 0.0 7.1250 0.0 -0.0 4.6972 41.5948 0.3955
9.2465 16.3914 2.2986 -181.9440 -180.8720 198.5480 0.0000 0.0000 0.0000 -11.1340 -8.7911 -42.4870 10.0775 17.4532 59.7472 3.4519 -8.3456 -33.7309 0.3101 -3.5801 -9.8982 0.0000 0.0000 0.0000 17.6351 12.3563 -43.2491 -11.4728 -18.1588 64.3077 -2.9223 -4.4790 -34.1025 -0.1254 2.2826 -6.2872 1.7691 0.4373 24.4109 2.7600 1.4214 1.0836 1.6170 0.6489 -12.5254 -4.5439 -3.5889 -14.2012 5.9260 -4.1332 -4.6297 2.4867 -1.8885 1.2027 -0.0000 0.0000 0.0000 12.6496 -18.3527 -24.8152 134.5819 -50.9717 97.4369 34.5234 -28.5381 16.406 0.0 0.0 0.0 -7.1250 0.0 0.0 4.4168 10.3609 3.5613 -0.0000 0.0000 0.0000 -16.3768 -26.4961 20.2637 -128.5757 -53.554 -92.6842 -21.5928 -15.8548 10.7456 0.0 0.0 0.0 7.1250 0.0 -0.0 4.8923 41.4659 0.4276
9.2388 16.2977 2.3428 -182.3010 -180.6520 198.9380 0.0000 0.0000 0.0000 -10.5652 -8.6182 -43.5334 10.5206 17.6924 61.2147 3.6153 -8.3583 -34.5637 0.3633 -3.8718 -10.7162 0.0000 0.0000 0.0000 17.7843 13.2668 -43.9784 -11.8918 -18.3445 65.6455 -3.0225 -4.7252 -34.7525 -0.0898 1.9324 -5.3188 1.9110 0.5748 24.1802 2.8216 1.6297 1.2890 1.5315 0.7391 -12.1629 -4.6556 -3.6100 -14.5549 6.2622 -4.1083 -5.2994 2.6210 -1.8664 1.0545 -0.0000 -0.0000 0.0000 12.8698 -19.3585 -24.5239 135.0711 -50.7336 97.8163 34.7857 -28.638 16.044 0.0 0.0 0.0 -7.1250 0.0 0.0 4.6410 10.7315 3.7081 -0.0000 -0.0000 0.0000 -16.7704 -27.0494 19.6158 -129.2838 -53.2803 -93.2528 -21.573 -15.9977 10.5041 0.0 0.0 0.0 7.1250 0.0 -0.0 4.8745 41.2069 0.4572
9.2289 16.2093 2.3891 -182.6120 -180.6370 199.2450 0.0000 0.0000 0.0000 -10.0267 -8.5803 -44.4087 10.9355 17.9034 62.5719 3.7515 -8.3530 -35.2465 0.3774 -3.9457 -10.9239 0.0000 0.0000 0.0000 17.9712 13.8998 -44.4980 -12.2447 -18.4922 66.7622 -3.1599 -4.7579 -35.4948 -0.0633 1.6235 -4.4663 2.1048 0.6182 24.3749 2.8659 1.7545 1.2311 1.4279 0.7855 -12.3350 -4.6252 -3.6371 -14.7003 6.4185 -4.1261 -5.7589 2.6671 -1.8737 0.9322 -0.0000 -0.0000 0.0000 13.1587 -19.8366 -24.289 135.2841 -50.6285 97.9811 35.06 -28.6156 15.8423 0.0 0.0 0.0 -7.1250 0.0 0.0 4.8496 10.9132 3.858 -0.0000 -0.0000 0.0000 -17.1057 -27.0677 19.1462 -130.0421 -52.9785 -93.8595 -21.5666 -15.9786 10.5862 0.0 0.0 0.0 7.1250 0.0 -0.0 4.8921 41.2937 0.4484
